<svg xmlns="http://www.w3.org/2000/svg" xmlns:xlink="http://www.w3.org/1999/xlink" width="500" zoomAndPan="magnify" viewBox="0 0 375 374.999991" height="500" preserveAspectRatio="xMidYMid meet" version="1.0"><defs><clipPath id="7af7ff2b1e"><path d="M 69.695312 87.070312 L 305.8125 87.070312 L 305.8125 287.925781 L 69.695312 287.925781 Z M 69.695312 87.070312 " clip-rule="nonzero"/></clipPath><clipPath id="585d9363b5"><path d="M 69.695312 87.070312 L 180.085938 87.070312 L 180.085938 287.925781 L 69.695312 287.925781 Z M 69.695312 87.070312 " clip-rule="nonzero"/></clipPath></defs><rect x="-37.5" width="450" fill="#ffffff" y="-37.499999" height="449.999989" fill-opacity="1"/><rect x="-37.5" width="450" fill="#ffffff" y="-37.499999" height="449.999989" fill-opacity="1"/><g clip-path="url(#7af7ff2b1e)"><path fill="#737373" d="M 263.988281 182.648438 L 263.988281 182.082031 C 283.84375 175.574219 296.949219 160.785156 296.949219 138.683594 C 296.949219 98.167969 259.925781 87.070312 228.757812 87.070312 L 148.84375 87.070312 L 148.84375 88.578125 L 196.28125 202.765625 L 222.535156 202.765625 C 243.21875 202.765625 256.824219 208.09375 256.824219 224.824219 C 256.824219 244.371094 238.128906 248.566406 222.820312 248.566406 L 215.347656 248.566406 L 231.578125 287.683594 C 268.882812 286.984375 305.183594 271.9375 305.183594 229.367188 C 305.183594 203.027344 287.292969 186.601562 263.988281 182.648438 Z M 221.683594 167.03125 L 195.429688 167.03125 L 195.429688 125.730469 L 219.410156 125.730469 C 239.8125 125.730469 250.296875 131.648438 250.296875 145.257812 C 250.296875 159.410156 239.8125 167.03125 221.683594 167.03125 Z M 148.84375 209.558594 L 98.410156 209.558594 L 123.921875 140.714844 Z M 69.796875 287.925781 L 84.519531 248.566406 L 162.164062 248.566406 L 177.738281 287.792969 Z M 69.796875 287.925781 " fill-opacity="1" fill-rule="nonzero"/></g><g clip-path="url(#585d9363b5)"><path fill="#004aad" d="M 263.988281 182.648438 L 263.988281 182.082031 C 283.84375 175.574219 296.949219 160.785156 296.949219 138.683594 C 296.949219 98.167969 259.925781 87.070312 228.757812 87.070312 L 148.84375 87.070312 L 148.84375 88.578125 L 196.28125 202.765625 L 222.535156 202.765625 C 243.21875 202.765625 256.824219 208.09375 256.824219 224.824219 C 256.824219 244.371094 238.128906 248.566406 222.820312 248.566406 L 215.347656 248.566406 L 231.578125 287.683594 C 268.882812 286.984375 305.183594 271.9375 305.183594 229.367188 C 305.183594 203.027344 287.292969 186.601562 263.988281 182.648438 Z M 221.683594 167.03125 L 195.429688 167.03125 L 195.429688 125.730469 L 219.410156 125.730469 C 239.8125 125.730469 250.296875 131.648438 250.296875 145.257812 C 250.296875 159.410156 239.8125 167.03125 221.683594 167.03125 Z M 148.84375 209.558594 L 98.410156 209.558594 L 123.921875 140.714844 Z M 69.796875 287.925781 L 84.519531 248.566406 L 162.164062 248.566406 L 177.738281 287.792969 Z M 69.796875 287.925781 " fill-opacity="1" fill-rule="nonzero"/></g></svg>